<?xml version="1.0" encoding="UTF-8"?>
<svg id="Layer_1" data-name="Layer 1" xmlns="http://www.w3.org/2000/svg" xmlns:xlink="http://www.w3.org/1999/xlink" viewBox="0 0 804.1 756.65">
  <defs>
    <linearGradient id="linear-gradient" x1="20.04" y1="383.09" x2="803.57" y2="383.09" gradientUnits="userSpaceOnUse">
      <stop offset="0" stop-color="#bf7802"/>
      <stop offset=".23" stop-color="#cb5c47"/>
      <stop offset=".49" stop-color="#e04f88"/>
      <stop offset=".77" stop-color="#8558c8"/>
      <stop offset="1" stop-color="#5881cb"/>
    </linearGradient>
  </defs>
  <path d="m250.45,44.35c-1.76,2.62-3.53,5.25-5.29,7.88-1.45-.74-3.03-1.52-4.75-2.34-10-4.77-15.52-15.39-13.25-25.11,15.01,7.44,20.48,12.53,23.29,19.57Zm25.97,487.19c-24.92-36.19-72.01-41.02-107.42-64.26-15.62-10.02-29.48-23.36-39.95-38.84,2.04,4.92,4.42,9.77,7.13,14.52,11.43,20.08,28.08,37.5,48.06,50.32,13.61,8.93,28.66,15.2,43.21,21.26,23.65,9.87,46.04,19.2,60.46,38.79-2.9-7.59-6.7-14.9-11.49-21.79Zm-16.13-240.2c-41.75-19.17-92.8,4.72-107.78,47.54-13.48,36.57-5.71,81.25,23.12,108.63,12.29,11.77,28.14,18.9,44.3,24.74-6.45-3.49-12.62-7.66-17.95-12.75-25.02-23.77-33.61-64.49-20.88-99.02l.05-.14c6.59-18.82,21.35-34.28,40.49-42.42,18.39-7.81,37.95-7.79,55.07.07,6.18,2.85,11.53,6.54,15.85,10.86-3.38-15.96-15.22-29.67-32.27-37.51Zm31.97-224.86c-1.29-5.38-2.64-9.71-4.03-13.15-3.39-8.32-7.02-11.51-10.5-11.99-2.55-.36-5.16.72-7.71,2.55,0,0-.01,0-.01.02-3.82,5.62-7.65,11.25-11.47,16.89.61.56,1.12,1.11,1.55,1.63-41.7,62.1-83.98,125.58-124.9,187.02l-1.63,2.44c-18.23,26.82-34.46,52.77-48.86,78.2-14.8,27.24-28.22,55.21-39.8,84.07-12.21,30.62-24.64,62.16-24.82,95.16-.8,45.14,11.5,91.63,41.64,126.09,20.52,23.94,48.01,43.44,78.21,53.73-18.9-9.97-36.53-23.94-51.29-41.15-26.26-30.02-40.26-72.65-39.42-120.02v-.11c.18-31.67,12.38-62.28,24.18-91.86,10.07-25.08,21.86-50.33,35.58-76.08.05-1.05.13-2.11.22-3.16,2.97-38.08,25.23-74.25,58.29-93.43,47.06-72.23,88.58-134.79,126.63-190.77l-1.86-6.08Zm56.99,256.85c-10.12-27.81-34.43-50.49-64.99-60.66-1.15-.39-2.3-.75-3.47-1.1,17.94,10.54,32.66,26.58,39.85,46.33,14.09,37.81-6.53,79.38-39.57,99.13-4.43,2.72-9.08,5.09-13.93,7.01-1,.39-2.02.63-3.04.73-1.73,4.6-1.82,9.82.09,14.65,4.14,10.43,15.98,15.57,26.42,11.46,5.19-2.06,10.33-4.64,15.28-7.67,18.19-10.89,32.77-27.55,41.06-46.94,8.87-20.75,9.68-43.12,2.3-62.94Zm14.35,254.51c-11.21-32.66-37.09-61.21-69.16-76.36-6.37-3.07-12.95-5.73-19.57-8.16,27.55,14.41,49.94,39.38,60.09,68.99,14.85,41.5,4.61,90.84-25.46,123.08-51.75,55.61-135.92,53.65-199,19.84-32.25-17.01-60.16-42.55-79.55-73.35,19.11,41.51,52.93,77.31,95.48,99.76,30.39,16.29,64.5,25.02,97.22,25.01,3.8,0,7.58-.11,11.33-.35,40.44-2.55,75.45-18.56,101.25-46.29,32.27-34.58,43.26-87.69,27.37-132.17Zm426.22,134.68c-6.82-3.25-16.46-9.49-23.66-20.77-2.3-3.59-4.19-7.47-5.62-11.58-.47-1.31-.88-2.64-1.26-4.08l-4.78-15.65L576.62,79.82c-3.61-11.77,2.06-24.64,13.2-29.93,10.4-4.97,15.96-16.27,12.95-26.23-.71-2.4-1.89-4.63-3.51-6.63-3.87-4.77-9.75-7.51-16.13-7.51h-8.79c.6,5.16-2.61,10.93-8.56,13.77-12.11,5.76-19.41,17.87-19.41,30.7,0,3.3.49,6.66,1.5,9.96l177.88,580.63,4.68,15.3c.42,1.57.9,3.18,1.48,4.81,1.52,4.35,3.62,8.88,6.52,13.41,9.26,14.51,21.79,21.38,27.36,24.03,6.65,3.17,9.89,10.02,8.2,15.59-.41,1.39-1.09,2.54-1.87,3.51-2.22,2.73-5.64,4.18-9.15,4.18h-329.57c-1.7,4.28-2.04,8.97-.7,13.43.61,2.01,1.55,3.91,2.83,5.69,3.79,5.23,10.06,8.35,16.77,8.35h330.84c6.37,0,12.24-2.73,16.11-7.49,1.62-1.99,2.8-4.22,3.51-6.61,3.02-10.01-2.54-21.3-12.94-26.26Z" fill="url(#linear-gradient)" stroke-width="0"/>
  <path d="m773.99,717.72c-.41,1.39-1.09,2.54-1.87,3.51-2.22,2.73-5.64,4.18-9.15,4.18h-330.84c-3.71,0-7.32-1.63-9.5-4.64-.62-.87-1.16-1.88-1.52-3.05-1.67-5.57,1.55-12.42,8.21-15.59,5.56-2.65,18.09-9.52,27.37-24.03.42-.66.82-1.31,1.2-1.96,9.03-15.31,10.77-33.85,5.56-50.83L294.12,72.56l-1.86-6.08c-1.29-5.38-2.64-9.71-4.03-13.15-3.39-8.32-7.02-11.51-10.5-11.99-2.55-.36-5.16.72-7.71,2.55,0,0-.01,0-.01.02-3.82,5.62-7.65,11.25-11.47,16.89-41.8,61.71-83.31,124.67-123.76,186.84-17.88,26.8-34.73,54.22-50.08,82.45-14.8,27.24-28.22,55.21-39.8,84.07-12.21,30.62-24.64,62.16-24.82,95.16-.8,45.14,11.5,91.63,41.64,126.09,20.52,23.94,48.01,43.44,78.21,53.73,17.77,6.06,36.47,8.93,55.24,7.64,54.7-3.49,101.27-44.44,100.4-100.87-.1-14.54-2.45-29-7.66-42.58-2.9-7.59-6.7-14.9-11.49-21.79-24.92-36.19-72.01-41.02-107.42-64.26-15.62-10.02-29.48-23.36-39.95-38.84-13.6-20.1-21.49-43.81-20.07-68.52.05-1.05.13-2.11.22-3.16,2.97-38.08,25.23-74.25,58.29-93.43,3.28-1.91,6.67-3.65,10.15-5.2,25.91-11.99,56.34-14.6,83.59-5.45,6.79,2.26,13.37,5.25,19.56,8.89,17.94,10.54,32.66,26.58,39.85,46.33,14.09,37.81-6.53,79.38-39.57,99.13-4.43,2.72-9.08,5.09-13.93,7.01-1,.39-2.02.63-3.04.73-4.95.5-9.82-2.31-11.74-7.16-2.1-5.33.1-11.29,4.93-14.06,13.69-7.8,25.03-19.95,31.19-33.54,5.06-10.69,6.17-21.35,4.08-31.16-3.38-15.96-15.22-29.67-32.27-37.51-41.75-19.17-92.8,4.72-107.78,47.54-13.48,36.57-5.71,81.25,23.12,108.63,12.29,11.77,28.14,18.9,44.3,24.74.2.07.41.15.61.22,16.34,5.87,33.92,10.92,49.83,18.6,1.51.72,3.02,1.46,4.5,2.25,27.55,14.41,49.94,39.38,60.09,68.99,14.85,41.5,4.61,90.84-25.46,123.08-51.75,55.61-135.92,53.65-199,19.84-32.25-17.01-60.16-42.55-79.55-73.35-11.43-18.17-19.9-38.18-24.52-59.35-6.5-27.85-8.26-56.93-4.4-85.28,5.11-33.14,18.3-62.59,30.97-92.89,23.87-54.74,54.31-106.65,87.81-155.91,41.08-61.69,82.84-124.38,124.35-186.22,1.76-2.63,3.53-5.26,5.29-7.88-2.81-7.04-8.28-12.13-23.29-19.57-.98-.49-2-.98-3.06-1.49-6.65-3.18-9.89-10.03-8.2-15.59.36-1.18.88-2.19,1.52-3.07,2.18-3,5.79-4.63,9.5-4.63h336.04c3.52,0,6.94,1.46,9.16,4.19.78.97,1.46,2.12,1.86,3.51.18.59.3,1.2.36,1.82.6,5.16-2.61,10.93-8.56,13.77-12.11,5.76-19.41,17.87-19.41,30.7,0,3.3.49,6.66,1.5,9.96l177.88,580.63,4.68,15.3c.42,1.57.9,3.18,1.48,4.81,1.52,4.35,3.62,8.88,6.52,13.41,9.26,14.51,21.79,21.38,27.36,24.03,6.65,3.17,9.89,10.02,8.2,15.59Z" fill="#2f2f2f" stroke-width="0"/>
</svg>